<svg enable-background="new 0 0 402.75 326.25" height="326.25" viewBox="-2.31793976 49.83570099 407.96537018 279.89120483" width="402.75" xmlns="http://www.w3.org/2000/svg"><g clip-rule="evenodd" fill-rule="evenodd"><path d="m8.25 201.75 271.5-3.75-10.5 31.5h-.75v1.5h-.75l-.75 1.5-.75.75-.75 1.5v.75l-.75.75v.75l-1.5 1.5v.75l-.75 1.5-.75.75v.75l-.75.75-.75 1.5-.75.75v.75l-.75 1.5-.75.75-.75 1.5-.75.75-.75 1.5-.75.75-.75.75-.75 1.5-.75.75-.75 1.5-.75.75-.75 1.5-3 3-.75 1.5-3 3-.75 1.5-.75.75-1.5.75-.75 1.5-3 3-.75 1.5-1.5.75-.75.75-1.5.75-.75 1.5-.75.75-1.5.75-.75.75-1.5.75-.75.75-1.5.75-.75.75-1.5.75-1.5 1.5-1.5.75-.75.75h-.75l-1.5.75-1.5 1.5h-.75l-2.25 2.25h-.75l-.75.75h-.75l-.75.75-3 1.5h-.75l-1.5.75-1.5 1.5h-1.5l-.75.75h-1.5l-1.5.75h-1.5l-.75.75 1.5 12.75h-1.5l-.75.75h-.75l-.75.75h-1.5l-.75.75h-1.5l-1.5.75h-1.5l-1.5.75h-1.5l-.75.75h-1.5l-.75.75h-3l-1.5.75h-.75l-.75.75h-3.75l-1.5.75h-2.25l-.75.75h-3.75l-1.5.75h-8.25l-.75.75h-7.5l-.75-.75h-9l-.75-.75h-6l-1.5-.75h-1.5l-.75-.75h-3.75l-.75-.75h-3l-1.5-.75h-3l-.75-.75h-.75l-1.5-.75h-3l-.75-.75h-2.25l-1.5-.75h-1.5l-1.5-.75h-.75l-1.5-.75h-.75l-.75-.75h-1.5v-10.5l-33.75-24-.75-.75h-.75l-10.5-10.5-1.5-2.25-1.5-.75-.75-1.5-.75-.75-1.5-.75v-.75l-1.5-.75v-1.5l-1.5-.75v-.75l-1.5-.75-.75-.75-.75-1.5-2.25-2.25-.75-1.5-.75-.75-.75-1.5-.75-.75v-.75l-.75-1.5-.75-.75-.75-1.5-1.5-1.5-.75-1.5-.75-.75v-.75l-.75-1.5-.75-.75v-1.5l-1.5-1.5v-1.5l-.75-.75v-1.5l-1.5-1.5v-1.5l-.75-.75v-.75l-.75-.75v-.75l-.75-.75v-.75l-.75-.75v-1.5l-.75-.75v-.75l-.75-1.5-.75-.75-.75-1.5v-1.5l-.75-1.5v-.75l-1.5-1.5v-1.5l-.75-.75v-.75l-.75-.75v-1.5l-.75-.75v-.75h-.75z" fill="#ed1c24"/><path d="m57 129h-.75l-.75.75h-1.5l-1.5.75h-1.5l-1.5.75h-.75l-.75.75h-2.25l-1.5 1.5h-1.5l-.75.75h-.75l-1.5.75-.75.75h-.75l-1.5.75-.75.75-1.5.75-.75.75h-1.5l-.75.75-1.5.75-.75.75-3 1.5-.75 1.5-.75.75-1.5.75-.75.75-1.5.75-.75 1.5-1.5.75-3 3-.75 1.5-.75.75-.75 1.5-1.5.75-1.5 3-.75.75-3.75 7.5v1.5l-1.5 3v2.25l-.75 1.5v7.5l.75 1.5v2.25l1.5 3v1.5l1.5 1.5v1.5l1.5 1.5 2.25 4.5 3 3 .75 1.5 1.5.75.75 1.5 4.5 4.5 1.5.75 3 3 1.5.75 4.5 4.5 3 1.5 1.5 1.5 2.25.75 2.25 2.25 1.5.75 2.25 1.5 1.5.75.75.75 7.5 3.75.75.75 1.5.75.75.75h1.5l.75.75 1.5.75h.75l.75.75h.75l1.5.75.75.75h1.5l.75.75h1.5l.75.75h2.25l.75.75h1.5l1.5.75h.75l1.5.75h.75l1.5.75h3.75l3 1.5h3.75l1.5.75h2.25l2.25.75h2.25l1.5.75h2.25l2.25.75h2.25l2.25.75h5.25l2.25.75h5.25l2.25.75h13.5l3 .75h9l3-.75h12l3-.75h3l3-.75h3.75l3-.75h3l3-.75 3.75-.75 6-1.5 3.75-.75 9-2.25 2.25-.75 6-1.5 2.25-.75 3-.75 15.75-5.25 1.5-.75 2.25-.75 1.5-.75 1.5-1.5 1.5-.75 2.25-.75 3-1.5.75-.75 4.5-2.25.75-.75 1.5-.75.75-.75 1.5-.75 3.75-3.75h.75l1.5-1.5 1.5-.75.75-1.5.75-.75.75-1.5 2.25-2.25v-.75h.75v-1.5l.75-.75v-.75l.75-1.5v-.75l.75-1.5v-1.5l.75-1.5v-2.25l.75-.75v-3.75l.75-.75v-9l-.75-1.5v-3.75l-.75-.75v-2.25l-.75-1.5v-.75l-.75-1.5v-.75l-.75-1.5-.75-.75-.75-1.5-.75-.75v-1.5l-3-3-.75-1.5-.75-.75-.75-1.5-1.5-.75-.75-.75v-.75h-.75v-.75l-.75-1.5-1.5-.75-.75-1.5-3-3-1.5-.75-.75-.75-1.5-.75-.75-.75-1.5-.75-.75-.75-3-1.5h-.75l-1.5-.75h-.75l-.75-.75h-1.5l-.75-.75h-2.25l-.75-.75h-3l-1.5-.75h-1.5z" fill="#f48072"/><path d="m15.75 207.75.75-12 5.25-9.75-.75-12 2.25-10.5 17.25-12 12-3 3.75-10.5v-.75l.75-.75v-2.25l.75-.75v-.75l.75-1.5v-1.5l.75-.75v-2.25h.75v-4.5-.75-5.25h.75l18.75-5.25 20.25-.75 10.5-9 8.25-6.75 10.5-.75 5.25 1.5 9.75 3 13.5-6 16.5 2.25 7.5 9.75 4.5 8.25 21.75 9 24 9 7.5 6.75 6 9.75-3.75 12 12.75 3.75 8.25 19.5v17.25l9.75 8.25-1.5 3-1.5 1.5-.75 1.5-1.5 1.5h-.75l-7.5 7.5-3 1.5-.75.75-4.5 2.25-1.5 1.5-2.25.75-3 1.5-2.25.75-1.5.75-2.25.75-1.5 1.5-2.25.75-3 .75-9 3-3 .75-3 1.5-3 .75-2.25.75-3.75.75-6 1.5-3.75.75-3 .75-3.75.75h-3.75l-11.25 2.25h-3.75l-4.5.75h-3.75l-3.75.75h-3.75l-3.75.75h-21l-3-.75h-6.75l-3-.75h-3l-3.75-.75h-2.25l-3-.75h-3l-6-1.5h-2.25l-2.25-.75-3-.75-4.5-1.5-3-.75-4.5-1.5h-1.5l-6.75-2.25-1.5-.75-2.25-.75-3-1.5-2.25-.75-6-3-.75-.75-3-1.5h-.75l-1.5-.75-.75-.75h-.75l-1.5-1.5-1.5-.75h-.75l-1.5-1.5h-.75z" fill="#fff"/><path d="m60 133.5h-1.5l-.75.75h-1.5l-1.5.75h-1.5l-.75.75h-2.25l-.75.75h-.75l-1.5.75h-.75l-1.5.75h-.75l-1.5.75-.75.75h-1.5l-.75.75-1.5.75h-1.5l-.75.75-1.5.75-.75.75-1.5.75-1.5.75-.75.75-3 1.5-.75.75-1.5.75-.75 1.5-1.5.75-.75.75-1.5.75-.75 1.5-1.5.75-.75 1.5-.75.75-.75 1.5-2.25 2.25-1.5 3-.75.75-1.5 3v1.5l-.75 1.5v1.5l-.75 1.5v2.25l-.75 1.5v8.25l.75 2.25v1.5l.75 1.5.75 2.25 2.25 4.5 1.5 2.25.75 1.5 1.5 1.5.75 1.5 5.25 5.25 1.5.75 3 3 4.5 3 1.5 1.5 6.75 4.5 2.25.75 3 1.5 2.25 1.5 2.25.75 2.25 1.5 3 1.5 3 .75 2.25 1.5 3 .75 2.25.75 3 1.5 6 1.5 3 1.5 21 5.25 3.75.75 3 .75h3l3 .75h3l3.75.75 3 .75h6.75l3 .75h6l3.75.75h18.75l3-.75h5.25l3-.75h5.25l3-.75h3l2.25-.75h3l2.25-.75 3-.75h2.25l2.25-.75 3-.75h2.25l6.75-2.25 3-.75h2.25l9-3 1.5-.75 6.75-2.25 1.5-.75 2.25-.75 1.5-.75 2.25-.75 1.5-.75 2.25-1.5 6-3 2.25-.75 2.25-2.25 3-1.5 1.5-1.5 3-1.5.75-.75 1.5-.75.75-1.5.75-.75 1.5-.75.75-1.5.75-.75 1.5-.75 1.5-1.5.75-1.5.75-.75v-.75l2.25-2.25v-.75l.75-1.5.75-.75v-2.25h.75v-3l.75-.75v-1.5l.75-1.5v-8.25l-.75-1.5v-3.75l-.75-.75v-1.5l-.75-1.5v-.75l-.75-.75v-1.5l-.75-.75v-.75l-1.5-.75v-.75l5.25-4.5h.75v.75l.75.75 1.5 3v.75l.75.75v.75l.75 1.5v.75l.75.75v1.5l.75.75v2.25l.75 1.5v6.75l.75.75-.75.75v7.5l-.75 1.5v1.5l-.75.75v2.25l-1.5 3-.75.75-1.5 3-.75.75-3 6-1.5.75-1.5 1.5-.75 1.5-1.5.75-5.25 5.25h-.75l-1.5 1.5-1.5.75-.75.75h-.75l-.75 1.5h-1.5l-1.5 1.5-1.5.75-.75.75-1.5.75h-.75l-.75.75-1.5.75h-.75l-.75.75h-.75l-.75.75h-.75l-1.5 1.5h-1.5l-.75.75h-.75l-.75.75h-1.5l-.75.75h-.75l-.75.75h-1.5l-.75.75h-.75l-1.5.75h-.75l-.75.75h-1.5l-.75.75h-.75l-1.5.75h-1.5l-.75.75h-.75l-1.5.75h-.75l-1.5.75h-1.5l-.75.75h-2.25l-1.5.75h-.75l-1.5.75h-3l-.75.75h-1.5l-.75.75h-3l-1.5.75h-2.25l-1.5.75h-1.5l-1.5.75h-3.75l-1.5.75h-1.5l-1.5.75h-4.5l-1.5.75h-6l-3 .75h-9l-3 .75h-22.5l-3-.75h-8.25l-3-.75h-2.25l-3-.75h-5.25l-2.25-.75h-3l-2.25-.75h-2.25l-3-.75-4.5-1.5h-3l-4.5-1.5-3-.75-2.25-.75h-2.25l-2.25-1.5h-2.25l-9-3-1.5-1.5-6.75-2.25-1.5-.75-4.5-1.5-1.5-.75-2.25-1.5-1.5-.75-2.25-.75-3-1.5-2.25-.75-1.5-1.5-1.5-.75-2.25-1.5-4.5-2.25-1.5-1.5-1.5-.75-.75-.75-1.5-.75-.75-1.5-.75-.75-1.5-.75-3.75-3.75-.75-1.5-5.25-5.25-.75-1.5-1.5-1.5-3-6-.75-.75-1.5-3v-1.5l-.75-1.5-.75-2.25v-3.75l-.75-1.5v-6.75l.75-1.5v-3l.75-1.5v-1.5l.75-1.5v-1.5l2.25-4.5 1.5-.75v-1.5l1.5-1.5 2.25-4.5 1.5-1.5 1.5-.75.75-1.5 5.25-5.25 2.25-.75 3-3 1.5-.75 2.25-1.5 1.5-.75 2.25-1.5 1.5-.75 2.25-.75 2.25-1.5 15.75-5.25 3-.75 2.25-.75h3z" fill="#010101"/><path d="m180.75 207.75 1.5 2.25 1.5 3.75 3.75.75 106.5-57.75 105-60.75v-10.5l-8.25-2.25z" fill="#ffcb05"/><g fill="#010101"><path d="m240.75 144 .75.75h.75l.75.75h1.5l.75.75h.75l.75.75h.75l.75.75 1.5.75h.75l1.5 1.5h.75l1.5.75.75 1.5h1.5l.75.75 1.5.75.75 1.5 1.5.75.75.75 1.5.75.75 1.5 6-3v-.75l-1.5-1.5-1.5-.75-4.5-4.5-1.5-.75-1.5-1.5-3-1.5-.75-.75-3-1.5-.75-.75h-.75l-.75-.75h-.75l-.75-.75h-.75l-.75-.75h-.75l-.75-.75h-.75l-.75-.75h-1.5l-.75-.75h-1.5l-.75-.75z"/><path d="m24 182.25-.75-.75v-.75l-.75-1.5v-4.5l.75-1.5v-1.5l.75-.75v-.75l.75-.75v-.75l1.5-1.5.75-1.5 1.5-.75 1.5-1.5 1.5-.75.75-1.5.75-.75 3-1.5.75-.75 1.5-.75 1.5-.75h.75l.75-.75 3-1.5h.75l1.5-.75h.75l1.5-.75h.75l.75-.75h.75l1.5-.75h1.5v-.75h1.5l.75-.75h1.5v-1.5l-.75-.75v-3.75l.75-1.5v-2.25l1.5-1.5.75-1.5.75-.75.75-1.5v-.75l.75-1.5v-7.5l.75-.75v-2.25l1.5-1.5.75-1.5v-.75l.75-.75h.75l.75-.75 1.5-.75h1.5l.75-.75h18.75l1.5-.75h2.25l1.5-.75h2.25l1.5-.75h1.5l1.5-.75h1.5v-1.5l.75-.75v-1.5l.75-1.5v-.75l.75-.75v-.75h-1.5l-1.5.75h-.75l-1.5.75h-2.25l-.75.75h-3l-.75.75h-5.25l-.75.75h-18.75l-3 1.5h-1.5l-.75.75-1.5.75-3.75 3.75v.75l-.75.75v.75l-.75.75v2.25l-.75.75v8.25l-.75 1.5v.75l-.75.75v.75l-.75.75v.75l-1.5 1.5v1.5l-.75.75v.75l-.75.75v5.25h-2.25l-.75.75h-1.5l-.75.75h-.75l-.75.75h-1.5l-.75.75h-.75l-.75.75h-1.5l-.75.75h-.75l-1.5 1.5h-.75l-.75.75-1.5.75-.75.75h-1.5l-3 3h-.75l-6 6-.75 1.5-.75.75-.75 1.5-.75.75-.75 1.5-.75.75v.75l-.75 1.5v8.25l.75 1.5v1.5l.75 1.5.75.75v.75l.75.75v.75z"/><path d="m106.5 118.5v-1.5l.75-.75v-2.25l1.5-3v-1.5l.75-.75v-.75l.75-.75v-.75l1.5-1.5.75-2.25 1.5-.75 2.25-2.25h.75l.75-.75h.75l.75-.75h1.5l.75-.75h6.75l.75.75h2.25l.75.75h1.5l3 1.5.75.75 1.5.75 1.5 1.5.75-.75h.75l.75-.75 1.5-.75h.75l2.25-.75.75-.75 1.5-.75h.75l.75-.75h1.5l.75-.75h3l1.5-.75h7.5l1.5.75.75.75h1.5l.75.75 1.5.75h.75l.75 1.5h.75l.75 1.5.75.75 1.5.75v1.5l.75.75v.75l1.5 1.5.75 1.5.75.75 1.5.75.75.75h.75l1.5 1.5 1.5.75h.75l1.5 1.5h2.25l.75.75h6l.75-.75h.75l2.25-6h-2.25l-.75.75h-3.75l-1.5-.75-.75-.75h-.75l-1.5-.75h-.75l-.75-.75-1.5-.75-.75-.75-1.5-.75-.75-.75-1.5-3-3-3-.75-1.5-1.5-.75-.75-1.5-3-1.5-.75-.75-4.5-2.25h-1.5l-1.5-.75h-8.25l-1.5.75h-3l-.75.75h-1.5l-1.5.75-.75.75h-1.5l-1.5.75h-.75l-.75.75h-.75l-.75.75v.75l-.75-.75h-.75l-.75-.75h-.75l-.75-.75-1.5-.75h-1.5l-.75-.75h-.75l-.75-.75h-12.75l-1.5.75h-.75l-1.5.75h-.75l-1.5.75-.75.75h-1.5l-.75.75-.75 1.5-5.25 5.25-.75 1.5v.75l-.75.75-.75 1.5v.75l-.75.75v.75l-.75 1.5v2.25l-.75.75v4.5z"/><path d="m195.649 115.438 2.628 1.886h.875l1.755 1.257h.874l1.75.63 2.63 1.887h1.75l.878.628h.876l.876.629h2.628l.876.63h2.628l.876.629h1.751l1.752.627h.877l1.751.63h.877l1.752.627.875.631h.877l5.255 3.773v1.887l1.752 1.258v1.258l.875 1.259v4.401l-.875 1.257v.631l-1.752 1.257v1.257l-.875.63v.628l-.877 1.257v.629l.877.629v1.258l.875.629h1.752l1.752.629h8.761l1.75.629v.628h.876l.875 1.259 7.009-3.145h-.876l-3.504-2.516-1.75-.629-.879-.628-1.751-.629h-6.131l-.877-.628v-.63l.877-.628.877-1.259.875-.627v-8.176l-.875-.63v-.628l-.877-1.259v-1.258l-2.628-3.773-5.256-3.774-1.752-.629-1.752-1.257-1.751-.629h-.877l-.875-.629h-2.629l-.876-.63h-2.627l-.877-.629h-1.751l-.876-.628h-2.628l-.876-.628h-.877l-.875-.632h-.876l-1.752-.626h-.878l-.874-.63-1.751-.628-.876-.63v-.629l-1.752-.628-.877-1.258z"/><path d="m257.25 175.5.75.75v.75l.75.75v.75l.75.75v2.25l.75 1.5v10.5l-.75.75v6.75.75l.75.75v1.5l3 1.5.75.75 1.5.75 1.5 1.5 1.5.75v.75l.75.75 1.5 3 5.25-2.25v-1.5l-.75-1.5v-.75l-1.5-1.5v-.75l-1.5-.75-.75-.75-.75-1.5-3-1.5-1.5-1.5-.75-1.5v-.75l.75-1.5v-4.5l.75-.75v-4.5l-.75-1.5v-5.25l-.75-.75v-2.25l-.75-.75v-.75l-1.5-1.5v-.75z"/><path d="m60 204v-.75h.75l2.25-2.25h.75l.75-.75h.75l.75-.75h2.25l.75.75h.75l1.5.75h.75l5.25 5.25v.75l.75.75v1.5l.75.75v.75l6-1.5v-1.5l-.75-.75v-1.5l-.75-1.5-.75-.75v-1.5l-3.75-3.75-.75-1.5-6-3h-8.25l-.75.75h-1.5l-1.5 1.5-3 1.5-.75 1.5-1.5 1.5v.75l-.75.75z"/><path d="m91.5 160.5v-.75l-.75-.75v-.75l-.75-1.5v-.75l3.75-3.75h9l.75.75 3-5.25h-.75l-.75-.75h-.75l-.75-.75h-1.5-.75l-1.5-.75h-5.25l-.75.75h-.75l-1.5.75h-1.5l-1.5 1.5-1.5.75-1.5 1.5-1.5 3v6.75l.75 1.5v.75l2.25 2.25z"/><path d="m158.25 138.75-.75-.75h-3.75l-1.5-.75-.75.75h-1.5l-.75.75h-.75l-.75.75-.75 1.5-1.5 1.5v2.25l-.75.75v.75l.75.75v3l.75.75v.75.75h-6l-.75-1.5v-3.75l-.75-1.5v-2.25l.75-1.5v-1.5l.75-.75.75-1.5.75-.75.75-1.5 2.25-2.25 3-1.5h.75l1.5-.75h6l1.5.75h.75l3 1.5h1.5z"/><path d="m142.5 228.75.75-.75v-.75h.75l.75-.75h.75l.75-.75h1.5l.75-.75h1.5l.75-.75h6l1.5.75h1.5l1.5 1.5 1.5.75v1.5l1.5 1.5v.75h.75v1.5.75h.75l6.75-.75h-.75v-3l-.75-.75-.75-1.5v-.75l-2.25-2.25-.75-1.5-1.5-.75-2.25-2.25h-.75l-1.5-.75h-.75l-1.5-.75h-.75l-.75-.75h-8.25l-1.5.75h-1.5l-.75.75h-1.5l-.75.75h-.75l-1.5.75v.75h-.75l-1.5.75-.75.75-1.5.75-.75.75v.75l-.75.75z"/><path d="m236.282 156.146 4.512 2.905v.581l1.805 1.162.903 1.162.902.581.903 1.162v1.162l.902 1.162v.581h.903l1.805-.581 1.805-1.162 1.805-.581h.902v-.581l-.902-1.162v-.581l-.903-.581v-.581l-.902-1.162-.903-.581-.902-1.162-.903-.581-1.805-2.324-1.805-.581-.902-1.162-1.805-.581z"/><path d="m181.5 209.25 210-122.25.75.75h.75l.75 1.5.75.75.75 1.5v3l-211.5 119.25 4.5 5.25 213.75-120.75.75-.75v-4.5l-.75-1.5v-1.5l-.75-1.5v-.75l-.75-.75v-.75l-.75-.75-.75-1.5-1.5-1.5-.75-.75h-.75l-1.5-1.5h-.75l-.75-.75h-.75l-.75-.75-213.75 125.25z"/><path d="m12 201v.75l.75.75v1.5l.75 1.5.75.75v1.5l.75.75v.75l.75.75v.75l.75 1.5v.75l.75 1.5.75.75.75 1.5v.75l.75 1.5.75.75 1.5 3v1.5l.75 1.5.75.75 1.5 3 .75 1.5 1.5 3 1.5.75 3.75 7.5 1.5 1.5 1.5 3 1.5 1.5 1.5 3 2.25 2.25.75 1.5 3 3 .75 1.5 3.75 3.75.75 1.5 1.5.75 1.5 1.5.75 1.5 1.5.75 4.5 4.5h.75l.75 1.5h1.5l.75 1.5h.75v.75l1.5.75.75.75h.75v.75l1.5.75.75.75h.75l3.75 3.75h.75l1.5.75 2.25 2.25h1.5l1.5 1.5 3 1.5.75.75h.75l.75.75h.75l.75.75h.75l1.5 1.5h2.25l1.5 1.5h2.25l1.5 1.5h2.25l.75.75h.75l1.5.75h1.5l1.5.75h1.5l1.5.75h1.5l1.5.75h1.5l1.5.75h3l.75.75h5.25l1.5.75h3.75l1.5.75h29.25l1.5-.75h3l2.25-.75h4.5l1.5-.75h1.5l1.5-.75h3.75l3-1.5h3l4.5-2.25h2.25l3-1.5h1.5l3-1.5 2.25-.75.75-.75 2.25-.75.75-.75 2.25-.75.75-.75 2.25-.75 3-1.5 1.5-1.5 6-3 1.5-1.5 1.5-.75 3.75-3.75 1.5-.75 3-3 1.5-.75.75-1.5 4.5-4.5.75-1.5 3.75-3.75 1.5-2.25.75-1.5 1.5-1.5.75-1.5 1.5-1.5 1.5-3 1.5-1.5.75-1.5.75-.75 3-6 .75-.75 2.25-4.5.75-.75.75-1.5v-.75l.75-1.5 1.5-1.5v-1.5l.75-1.5 1.5-1.5v-.75l.75-1.5v-.75l.75-.75v-.75l.75-1.5v-1.5l.75-.75v-1.5l.75-.75v-1.5l.75-.75v-1.5l.75-.75v-2.25l.75-.75v-.75l11.25-9.75v.75l-.75.75v1.5l-.75.75v1.5l-.75 1.5v.75l-.75 1.5-.75.75v1.5l-.75 1.5v1.5l-2.25 4.5v1.5l-.75 2.25-1.5 3-.75 2.25-.75 1.5-1.5 4.5-1.5 1.5-1.5 4.5-.75 1.5-1.5 2.25-.75 2.25-1.5 2.25-1.5 1.5-.75 2.25-1.5 2.25-.75 2.25-1.5 2.25-1.5 1.5-4.5 6.75-3.75 3.75-3 4.5-2.25 1.5-1.5 2.25-3.75 3.75-2.25 1.5-1.5 2.25-2.25 2.25-6.75 4.5-2.25 2.25-2.25.75-2.25 1.5-3 1.5-2.25 1.5-1.5 1.5-6.75 2.25-1.5.75-4.5 1.5-2.25 1.5h-2.25l-2.25.75-1.5.75-4.5 1.5h-2.25l-2.25.75-1.5.75h-2.25l-2.25.75h-2.25l-2.25.75h-2.25l-2.25.75h-6l-2.25.75h-24.75l-2.25-.75h-6l-2.25-.75h-1.5l-2.25-.75h-3.75l-1.5-.75h-2.25l-1.5-.75h-1.5l-1.5-.75h-2.25l-1.5-.75h-1.5l-3-1.5h-1.5l-1.5-.75h-1.5l-3-1.5h-1.5l-1.5-.75-.75-.75-3-1.5h-1.5l-1.5-1.5-1.5-.75-.75-.75-7.5-3.75-3.75-3.75-3-1.5-1.5-1.5-3-1.5-.75-1.5-1.5-.75-1.5-1.5-1.5-.75-.75-1.5-1.5-.75-2.25-2.25-1.5-.75-.75-1.5-1.5-.75-.75-1.5-.75-.75-1.5-.75-.75-1.5-4.5-4.5-.75-1.5-.75-.75-.75-1.5-3.75-3.75-.75-1.5-.75-.75-.75-1.5-.75-.75-1.5-3-1.5-.75-.75-1.5-.75-.75-.75-1.5-.75-.75-1.5-3-.75-.75-2.25-4.5-.75-.75-2.25-4.5-.75-.75-.75-2.25-.75-.75v-1.5l-3.75-7.5-.75-.75-.75-1.5v-1.5l-1.5-3v-1.5l-2.25-4.5v-2.25l-.75-.75-.75-2.25v-1.5l-1.5-3v-1.5l-.75-1.5v-1.5l-.75-1.5z"/><path d="m96.75 302.25v7.5h.75l.75.75h.75l.75.75h.75l.75.75h.75l1.5.75h.75l1.5.75h1.5l.75.75h2.25l.75.75h2.25l.75.75h3l.75.75h1.5 1.5l.75.75h5.25l.75.75h5.25l1.5.75h23.25l.75-.75h5.25l.75-.75h5.25l.75-.75h3.75l.75-.75h2.25l1.5-.75h1.5l.75-.75h3l.75-.75 1.5-.75h.75l1.5-.75h.75l.75-.75h1.5l.75-.75h.75v-9.75l7.5-2.25v16.5h-.75l-.75.75h-.75l-.75.75h-.75l-.75.75h-.75l-3 1.5h-.75l-1.5.75h-.75l-.75.75h-1.5l-1.5.75h-.75l-1.5.75h-1.5l-.75.75h-3.75l-.75.75h-2.25l-1.5.75h-2.25l-1.5.75h-3.75l-1.5.75h-10.5l-1.5.75h-9l-1.5-.75h-11.25l-1.5-.75h-4.5l-1.5-.75h-3.75l-1.5-.75h-2.25l-1.5-.75h-3l-1.5-.75h-.75l-.75-.75h-1.5l-.75-.75h-3l-.75-.75h-.75l-.75-.75h-1.5l-.75-.75h-1.5l-1.5-.75h-.75l-.75-.75-1.5-.75h-.75l-.75-.75h-.75l-.75-.75v-16.5z"/><path d="m13.5 204v-.75l-.75-1.5v-3.75l.75-1.5v-1.5l.75-1.5v-.75l.75-1.5.75-.75 1.5-3 1.5-1.5.75-1.5 1.5-.75.75-.75 1.5-.75 1.5-1.5h1.5l.75-.75h1.5.75l3.75 5.25h-1.5l-1.5.75h-.75l-.75.75-1.5.75h-.75l-2.25 2.25-.75 1.5-1.5 1.5-.75 1.5v.75l-1.5 1.5v3.75l-.75 1.5.75 1.5v4.5l.75.75v.75z"/><path d="m120 111h-1.5l-.75-.75-1.5-.75h-.75l-2.25-.75-1.5-.75 4.5-6v.75h1.5l.75.75 1.5.75h.75l1.5.75z"/><path d="m120 122.25h-.75l-.75-.75h-2.25l-.75-.75h-1.5l-.75-.75h-.75l-1.5-.75-1.5-1.5h-.75l1.5-6h.75v.75h1.5v.75h.75l.75.75h2.25l.75.75 1.5.75h.75z"/><path d="m63.75 134.25h6.75l1.5.75-2.25 6h-1.5l-1.5-.75h-6z"/><path d="m69.75 151.5v-.75h-3.75l-.75-.75h-3l-.75-.75h-.75l-1.5-.75v-5.25h1.5l1.5.75h3.75l.75.75h2.25z"/><path d="m57 152.25h3.75l1.5.75.75.75h1.5l.75.75-6 3.75-.75-.75h-.75l-.75-.75h-1.5l-.75-.75h-.75l-1.5-.75h-3z"/><path d="m45 156.75h3.75l.75.75h1.5l1.5 1.5h.75l.75.75h1.5l-6.75 3.75h-.75l-.75-.75-1.5-.75h-1.5l-.75-.75h-.75l-1.5-.75h-3z"/><path d="m33.75 162.75h1.5l1.5.75h2.25l.75.75h1.5l.75.75 3 1.5-5.25 4.5h-.75v-.75h-.75l-1.5-.75h-.75l-.75-.75h-1.5l-1.5-.75h-.75l-1.5-.75h-1.5z"/><path d="m35.25 180.75h-.75l-1.5-.75h-.75l-1.5-.75h-.75l-1.5-1.5h-1.5l-.75-.75-1.5-.75h-.75l2.25-6h.75l1.5.75.75.75h1.5l.75.75 1.5.75h.75l.75.75h1.5l1.5.75z"/><path d="m72.75 131.25h-5.25l-.75-.75h-2.25v-6h1.5l.75.75h5.25z"/><path d="m29.25 213v-.75h-.75l-.75-.75-1.5-.75h-.75l-.75-.75v-.75l-1.5-1.5h-.75l-.75-1.5h-.75v-7.5l3 3 1.5.75.75.75h.75l1.5.75.75.75z"/><path d="m30 200.25-.75-.75h-.75l-1.5-1.5-1.5-.75-.75-.75h-.75l-1.5-1.5 4.5-5.25 1.5 1.5h.75l1.5.75 1.5 1.5h.75l.75.75z"/><path d="m52.5 245.25h-3.75l-1.5-.75h-.75l-1.5-.75h-1.5l-1.5-.75h-1.5l-6-3-6.75-12v.75l1.5.75h.75l1.5 1.5 4.5 2.25h.75l.75.75h.75l1.5.75.75.75h.75l.75.75h1.5l.75.75 1.5.75h1.5l.75.75z"/><path d="m80.25 286.5h9l.75-.75 15 10.5h-2.25l-.75-.75h-2.25l-1.5-.75h-2.25l-3-1.5h-1.5l-1.5-.75-.75-.75-3-1.5-.75-.75h-.75l-1.5-.75-.75-.75h-.75z"/><path d="m63 258.75h-6l-1.5-.75h-3l-1.5-.75h-1.5l-1.5-.75h-1.5l-.75-.75-6.75-9 .75.75h1.5l.75.75h.75l1.5.75h3 .75l.75.75h2.25l1.5.75h3l1.5.75z"/><path d="m75 271.5h-12.75l-1.5-.75h-.75l-9-9 .75.75h2.25l.75.75h4.5l.75.75h.75 6.75z"/><path d="m86.25 282h-2.25l-.75.75h-9l-8.25-6.75h9.75 1.5 1.5z"/></g><path d="m161.494 192.259 1.416 2.409 1.417 4.015 3.541.803 100.561-61.83 99.146-65.041v-11.242l-7.79-2.409z" fill="#ffcb05"/><path d="m163.405 194.63 198.643-131.848.708.81h.71l.71 1.618.71.808.708 1.618v3.235l-200.061 128.612 4.257 5.662 202.19-130.229.709-.809v-4.852l-.709-1.619v-1.618l-.71-1.618v-.808l-.709-.81v-.808l-.71-.808-.708-1.619-1.42-1.618-.709-.808h-.709l-1.419-1.618h-.71l-.71-.81h-.71l-.708-.808-202.19 135.083z" fill="#010101"/><path d="m191.127 140.951v-.75h.75l2.25-2.25h.75l.75-.75h.75l.75-.75h2.25l.75.75h.75l1.5.75h.75l5.25 5.25v.75l.75.75v1.5l.75.75v.75l6-1.5v-1.5l-.75-.75v-1.5l-.75-1.5-.75-.75v-1.5l-3.75-3.75-.75-1.5-6-3h-8.25l-.75.75h-1.5l-1.5 1.5-3 1.5-.75 1.5-1.5 1.5v.75l-.75.75z" fill="#010101"/></g></svg>