<svg enable-background="new 0 0 402.75 326.25" viewBox="-3.46809387 52.88796997 290 290" xmlns="http://www.w3.org/2000/svg"><g clip-rule="evenodd" fill-rule="evenodd"><path d="m8.25 190.75 271.5-3.75-10.5 31.5h-.75v1.5h-.75l-.75 1.5-.75.75-.75 1.5v.75l-.75.75v.75l-1.5 1.5v.75l-.75 1.5-.75.75v.75l-.75.75-.75 1.5-.75.75v.75l-.75 1.5-.75.75-.75 1.5-.75.75-.75 1.5-.75.75-.75.75-.75 1.5-.75.75-.75 1.5-.75.75-.75 1.5-3 3-.75 1.5-3 3-.75 1.5-.75.75-1.5.75-.75 1.5-3 3-.75 1.5-1.5.75-.75.75-1.5.75-.75 1.5-.75.75-1.5.75-.75.75-1.5.75-.75.75-1.5.75-.75.75-1.5.75-1.5 1.5-1.5.75-.75.75h-.75l-1.5.75-1.5 1.5h-.75l-2.25 2.25h-.75l-.75.75h-.75l-.75.75-3 1.5h-.75l-1.5.75-1.5 1.5h-1.5l-.75.75h-1.5l-1.5.75h-1.5l-.75.75 1.5 12.75h-1.5l-.75.75h-.75l-.75.75h-1.5l-.75.75h-1.5l-1.5.75h-1.5l-1.5.75h-1.5l-.75.75h-1.5l-.75.75h-3l-1.5.75h-.75l-.75.75h-3.75l-1.5.75h-2.25l-.75.75h-3.75l-1.5.75h-8.25l-.75.75h-7.5l-.75-.75h-9l-.75-.75h-6l-1.5-.75h-1.5l-.75-.75h-3.75l-.75-.75h-3l-1.5-.75h-3l-.75-.75h-.75l-1.5-.75h-3l-.75-.75h-2.25l-1.5-.75h-1.5l-1.5-.75h-.75l-1.5-.75h-.75l-.75-.75h-1.5v-10.5l-33.75-24-.75-.75h-.75l-10.5-10.5-1.5-2.25-1.5-.75-.75-1.5-.75-.75-1.5-.75v-.75l-1.5-.75v-1.5l-1.5-.75v-.75l-1.5-.75-.75-.75-.75-1.5-2.25-2.25-.75-1.5-.75-.75-.75-1.5-.75-.75v-.75l-.75-1.5-.75-.75-.75-1.5-1.5-1.5-.75-1.5-.75-.75v-.75l-.75-1.5-.75-.75v-1.5l-1.5-1.5v-1.5l-.75-.75v-1.5l-1.5-1.5v-1.5l-.75-.75v-.75l-.75-.75v-.75l-.75-.75v-.75l-.75-.75v-1.5l-.75-.75v-.75l-.75-1.5-.75-.75-.75-1.5v-1.5l-.75-1.5v-.75l-1.5-1.5v-1.5l-.75-.75v-.75l-.75-.75v-1.5l-.75-.75v-.75h-.75z" fill="#ed1c24"/><path d="m57 118h-.75l-.75.75h-1.5l-1.5.75h-1.5l-1.5.75h-.75l-.75.75h-2.25l-1.5 1.5h-1.5l-.75.75h-.75l-1.5.75-.75.75h-.75l-1.5.75-.75.75-1.5.75-.75.75h-1.5l-.75.75-1.5.75-.75.75-3 1.5-.75 1.5-.75.75-1.5.75-.75.75-1.5.75-.75 1.5-1.5.75-3 3-.75 1.5-.75.75-.75 1.5-1.5.75-1.5 3-.75.75-3.75 7.5v1.5l-1.5 3v2.25l-.75 1.5v7.5l.75 1.5v2.25l1.5 3v1.5l1.5 1.5v1.5l1.5 1.5 2.25 4.5 3 3 .75 1.5 1.5.75.75 1.5 4.5 4.5 1.5.75 3 3 1.5.75 4.5 4.5 3 1.5 1.5 1.5 2.25.75 2.25 2.25 1.5.75 2.25 1.5 1.5.75.75.75 7.5 3.75.75.75 1.5.75.75.75h1.5l.75.75 1.5.75h.75l.75.75h.75l1.5.75.75.75h1.5l.75.75h1.5l.75.75h2.25l.75.75h1.5l1.5.75h.75l1.5.75h.75l1.5.75h3.75l3 1.5h3.75l1.5.75h2.25l2.25.75h2.25l1.5.75h2.25l2.25.75h2.25l2.25.75h5.25l2.25.75h5.25l2.25.75h13.5l3 .75h9l3-.75h12l3-.75h3l3-.75h3.75l3-.75h3l3-.75 3.75-.75 6-1.5 3.75-.75 9-2.25 2.25-.75 6-1.5 2.25-.75 3-.75 15.75-5.25 1.5-.75 2.25-.75 1.5-.75 1.5-1.5 1.5-.75 2.25-.75 3-1.5.75-.75 4.5-2.25.75-.75 1.5-.75.75-.75 1.5-.75 3.75-3.75h.75l1.5-1.5 1.5-.75.75-1.5.75-.75.75-1.5 2.25-2.25v-.75h.75v-1.5l.75-.75v-.75l.75-1.5v-.75l.75-1.5v-1.5l.75-1.5v-2.25l.75-.75v-3.75l.75-.75v-9l-.75-1.5v-3.75l-.75-.75v-2.25l-.75-1.5v-.75l-.75-1.5v-.75l-.75-1.5-.75-.75-.75-1.5-.75-.75v-1.5l-3-3-.75-1.5-.75-.75-.75-1.5-1.5-.75-.75-.75v-.75h-.75v-.75l-.75-1.5-1.5-.75-.75-1.5-3-3-1.5-.75-.75-.75-1.5-.75-.75-.75-1.5-.75-.75-.75-3-1.5h-.75l-1.5-.75h-.75l-.75-.75h-1.5l-.75-.75h-2.25l-.75-.75h-3l-1.5-.75h-1.5z" fill="#f48072"/><path d="m15.75 196.75.75-12 5.25-9.75-.75-12 2.25-10.5 17.25-12 12-3 3.75-10.5v-.75l.75-.75v-2.25l.75-.75v-.75l.75-1.5v-1.5l.75-.75v-2.25h.75v-4.5-.75-5.25h.75l18.75-5.25 20.25-.75 10.5-9 8.25-6.75 10.5-.75 5.25 1.5 9.75 3 13.5-6 16.5 2.25 7.5 9.75 4.5 8.25 21.75 9 24 9 7.5 6.75 6 9.75-3.75 12 12.75 3.75 8.25 19.5v17.25l9.75 8.25-1.5 3-1.5 1.5-.75 1.5-1.5 1.5h-.75l-7.5 7.5-3 1.5-.75.75-4.5 2.25-1.5 1.5-2.25.75-3 1.5-2.25.75-1.5.75-2.25.75-1.5 1.5-2.25.75-3 .75-9 3-3 .75-3 1.5-3 .75-2.25.75-3.75.75-6 1.5-3.75.75-3 .75-3.75.75h-3.75l-11.25 2.25h-3.75l-4.5.75h-3.75l-3.75.75h-3.75l-3.75.75h-21l-3-.75h-6.75l-3-.75h-3l-3.75-.75h-2.25l-3-.75h-3l-6-1.5h-2.25l-2.25-.75-3-.75-4.5-1.5-3-.75-4.5-1.5h-1.5l-6.75-2.25-1.5-.75-2.25-.75-3-1.5-2.25-.75-6-3-.75-.75-3-1.5h-.75l-1.5-.75-.75-.75h-.75l-1.5-1.5-1.5-.75h-.75l-1.5-1.5h-.75z" fill="#fff"/><g fill="#010101"><path d="m60 122.5h-1.5l-.75.75h-1.5l-1.5.75h-1.5l-.75.75h-2.25l-.75.75h-.75l-1.5.75h-.75l-1.5.75h-.75l-1.5.75-.75.75h-1.5l-.75.75-1.5.75h-1.5l-.75.75-1.5.75-.75.75-1.5.75-1.5.75-.75.75-3 1.5-.75.75-1.5.75-.75 1.5-1.5.75-.75.75-1.5.75-.75 1.5-1.5.75-.75 1.5-.75.75-.75 1.5-2.25 2.25-1.5 3-.75.75-1.5 3v1.5l-.75 1.5v1.5l-.75 1.5v2.25l-.75 1.5v8.25l.75 2.25v1.5l.75 1.5.75 2.25 2.25 4.5 1.5 2.25.75 1.5 1.5 1.5.75 1.5 5.25 5.25 1.5.75 3 3 4.5 3 1.5 1.5 6.75 4.5 2.25.75 3 1.5 2.25 1.5 2.25.75 2.25 1.5 3 1.5 3 .75 2.25 1.5 3 .75 2.25.75 3 1.5 6 1.5 3 1.5 21 5.25 3.75.75 3 .75h3l3 .75h3l3.75.75 3 .75h6.75l3 .75h6l3.75.75h18.75l3-.75h5.25l3-.75h5.25l3-.75h3l2.25-.75h3l2.25-.75 3-.75h2.25l2.25-.75 3-.75h2.25l6.75-2.25 3-.75h2.25l9-3 1.5-.75 6.75-2.25 1.5-.75 2.25-.75 1.5-.75 2.25-.75 1.5-.75 2.25-1.5 6-3 2.25-.75 2.25-2.25 3-1.5 1.5-1.5 3-1.5.75-.75 1.5-.75.75-1.5.75-.75 1.5-.75.75-1.5.75-.75 1.5-.75 1.5-1.5.75-1.5.75-.75v-.75l2.25-2.25v-.75l.75-1.5.75-.75v-2.25h.75v-3l.75-.75v-1.5l.75-1.5v-8.25l-.75-1.5v-3.75l-.75-.75v-1.5l-.75-1.5v-.75l-.75-.75v-1.5l-.75-.75v-.75l-1.5-.75v-.75l5.25-4.5h.75v.75l.75.75 1.5 3v.75l.75.75v.75l.75 1.5v.75l.75.75v1.5l.75.75v2.25l.75 1.5v6.75l.75.75-.75.75v7.5l-.75 1.5v1.5l-.75.75v2.25l-1.5 3-.75.75-1.5 3-.75.75-3 6-1.5.75-1.5 1.5-.75 1.5-1.5.75-5.25 5.25h-.75l-1.5 1.5-1.5.75-.75.75h-.75l-.75 1.5h-1.5l-1.5 1.5-1.5.75-.75.75-1.5.75h-.75l-.75.75-1.5.75h-.75l-.75.75h-.75l-.75.75h-.75l-1.5 1.5h-1.5l-.75.75h-.75l-.75.75h-1.5l-.75.75h-.75l-.75.75h-1.5l-.75.75h-.75l-1.5.75h-.75l-.75.75h-1.5l-.75.75h-.75l-1.5.75h-1.5l-.75.75h-.75l-1.5.75h-.75l-1.5.75h-1.5l-.75.75h-2.25l-1.5.75h-.75l-1.5.75h-3l-.75.75h-1.5l-.75.75h-3l-1.5.75h-2.25l-1.5.75h-1.5l-1.5.75h-3.75l-1.5.75h-1.5l-1.5.75h-4.5l-1.5.75h-6l-3 .75h-9l-3 .75h-22.5l-3-.75h-8.25l-3-.75h-2.25l-3-.75h-5.25l-2.25-.75h-3l-2.25-.75h-2.25l-3-.75-4.5-1.5h-3l-4.5-1.5-3-.75-2.25-.75h-2.25l-2.25-1.5h-2.25l-9-3-1.5-1.5-6.75-2.25-1.5-.75-4.5-1.5-1.5-.75-2.25-1.5-1.5-.75-2.25-.75-3-1.5-2.25-.75-1.5-1.5-1.5-.75-2.25-1.5-4.5-2.25-1.5-1.5-1.5-.75-.75-.75-1.5-.75-.75-1.5-.75-.75-1.5-.75-3.75-3.75-.75-1.5-5.25-5.25-.75-1.5-1.5-1.5-3-6-.75-.75-1.5-3v-1.5l-.75-1.5-.75-2.25v-3.75l-.75-1.5v-6.75l.75-1.5v-3l.75-1.5v-1.5l.75-1.5v-1.5l2.25-4.5 1.5-.75v-1.5l1.5-1.5 2.25-4.5 1.5-1.5 1.5-.75.75-1.5 5.25-5.25 2.25-.75 3-3 1.5-.75 2.25-1.5 1.5-.75 2.25-1.5 1.5-.75 2.25-.75 2.25-1.5 15.75-5.25 3-.75 2.25-.75h3z"/><path d="m240.937 136.113.937 1.061h.937l.936 1.062h1.873l.937 1.061h.937l.937 1.061h.937l.937 1.062 1.873 1.061h.937l1.874 2.123h.937l1.873 1.061.936 2.122h1.874l.937 1.062 1.874 1.061.937 2.123 1.873 1.061.937 1.061 1.873 1.062.937 2.122 7.495-4.245v-1.061l-1.874-2.123-1.874-1.061-5.621-6.368-1.873-1.061-1.873-2.123-3.748-2.123-.937-1.061-3.746-2.123-.937-1.061h-.937l-.937-1.061h-.937l-.937-1.061h-.936l-.937-1.062h-.937l-.937-1.061h-.937l-.937-1.061h-1.873l-.936-1.062h-1.874l-.937-1.061z"/><path d="m24 171.25-.75-.75v-.75l-.75-1.5v-4.5l.75-1.5v-1.5l.75-.75v-.75l.75-.75v-.75l1.5-1.5.75-1.5 1.5-.75 1.5-1.5 1.5-.75.75-1.5.75-.75 3-1.5.75-.75 1.5-.75 1.5-.75h.75l.75-.75 3-1.5h.75l1.5-.75h.75l1.5-.75h.75l.75-.75h.75l1.5-.75h1.5v-.75h1.5l.75-.75h1.5v-1.5l-.75-.75v-3.75l.75-1.5v-2.25l1.5-1.5.75-1.5.75-.75.75-1.5v-.75l.75-1.5v-7.5l.75-.75v-2.25l1.5-1.5.75-1.5v-.75l.75-.75h.75l.75-.75 1.5-.75h1.5l.75-.75h18.75l1.5-.75h2.25l1.5-.75h2.25l1.5-.75h1.5l1.5-.75h1.5v-1.5l.75-.75v-1.5l.75-1.5v-.75l.75-.75v-.75h-1.5l-1.5.75h-.75l-1.5.75h-2.25l-.75.75h-3l-.75.75h-5.25l-.75.75h-18.75l-3 1.5h-1.5l-.75.75-1.5.75-3.75 3.75v.75l-.75.75v.75l-.75.75v2.25l-.75.75v8.25l-.75 1.5v.75l-.75.75v.75l-.75.75v.75l-1.5 1.5v1.5l-.75.75v.75l-.75.75v5.25h-2.25l-.75.75h-1.5l-.75.75h-.75l-.75.75h-1.5l-.75.75h-.75l-.75.75h-1.5l-.75.75h-.75l-1.5 1.5h-.75l-.75.75-1.5.75-.75.75h-1.5l-3 3h-.75l-6 6-.75 1.5-.75.75-.75 1.5-.75.75-.75 1.5-.75.75v.75l-.75 1.5v8.25l.75 1.5v1.5l.75 1.5.75.75v.75l.75.75v.75z"/><path d="m106.5 107.5v-1.5l.75-.75v-2.25l1.5-3v-1.5l.75-.75v-.75l.75-.75v-.75l1.5-1.5.75-2.25 1.5-.75 2.25-2.25h.75l.75-.75h.75l.75-.75h1.5l.75-.75h6.75l.75.75h2.25l.75.75h1.5l3 1.5.75.75 1.5.75 1.5 1.5.75-.75h.75l.75-.75 1.5-.75h.75l2.25-.75.75-.75 1.5-.75h.75l.75-.75h1.5l.75-.75h3l1.5-.75h7.5l1.5.75.75.75h1.5l.75.75 1.5.75h.75l.75 1.5h.75l.75 1.5.75.75 1.5.75v1.5l.75.75v.75l1.5 1.5.75 1.5.75.75 1.5.75.75.75h.75l1.5 1.5 1.5.75h.75l1.5 1.5h2.25l.75.75h6l.75-.75h.75l2.25-6h-2.25l-.75.75h-3.75l-1.5-.75-.75-.75h-.75l-1.5-.75h-.75l-.75-.75-1.5-.75-.75-.75-1.5-.75-.75-.75-1.5-3-3-3-.75-1.5-1.5-.75-.75-1.5-3-1.5-.75-.75-4.5-2.25h-1.5l-1.5-.75h-8.25l-1.5.75h-3l-.75.75h-1.5l-1.5.75-.75.75h-1.5l-1.5.75h-.75l-.75.75h-.75l-.75.75v.75l-.75-.75h-.75l-.75-.75h-.75l-.75-.75-1.5-.75h-1.5l-.75-.75h-.75l-.75-.75h-12.75l-1.5.75h-.75l-1.5.75h-.75l-1.5.75-.75.75h-1.5l-.75.75-.75 1.5-5.25 5.25-.75 1.5v.75l-.75.75-.75 1.5v.75l-.75.75v.75l-.75 1.5v2.25l-.75.75v4.5z"/><path d="m194.049 105.696 2.899 2.513h.966l1.931 1.674h.967l1.931.837 2.9 2.512h1.933l.965.838h.967l.966.836h2.898l.967.838h2.899l.967.838h1.931l1.933.837h.966l1.933.837h.967l1.932.837.965.837h.968l5.796 5.023v2.513l1.933 1.673v1.676l.966 1.675v5.862l-.966 1.673v.837l-1.933 1.675v1.674l-.966.837v.837l-.966 1.676v.838l.966.836v1.676l.966.837h1.933l1.933.838h9.661l1.932.836v.837h.967l.965 1.675 7.731-4.186h-.966l-3.865-3.349-1.933-.838-.967-.838-1.932-.838h-6.764l-.966-.837v-.837l.966-.837.968-1.675.966-.837v-10.885l-.966-.838v-.836l-.968-1.674v-1.676l-2.897-5.023-5.798-5.024-1.932-.836-1.933-1.675-1.931-.838h-.968l-.965-.837h-2.899l-.966-.837h-2.899l-.967-.837h-1.931l-.967-.837h-2.899l-.967-.838h-.965l-.967-.838h-.966l-1.933-.837h-.965l-.967-.838-1.932-.835-.966-.838v-.837l-1.933-.838-.966-1.675z"/><path d="m251.324 155.697 1.074.931v.931l1.073.931v.931l1.074.931v2.794l1.074 1.862v13.036l-1.074.931v8.38.931l1.074.931v1.862l4.295 1.862 1.073.931 2.149.931 2.147 1.862 2.147.931v.931l1.074.931 2.147 3.726 7.517-2.793v-1.864l-1.074-1.862v-.931l-2.147-1.862v-.931l-2.147-.931-1.075-.931-1.074-1.862-4.294-1.862-2.149-1.862-1.072-1.862v-.932l1.072-1.862v-5.588l1.075-.931v-5.586l-1.075-1.862v-6.518l-1.072-.931v-2.793l-1.074-.931v-.931l-2.148-1.864v-.931z"/><path d="m60 193v-.75h.75l2.25-2.25h.75l.75-.75h.75l.75-.75h2.25l.75.75h.75l1.5.75h.75l5.25 5.25v.75l.75.75v1.5l.75.75v.75l6-1.5v-1.5l-.75-.75v-1.5l-.75-1.5-.75-.75v-1.5l-3.75-3.75-.75-1.5-6-3h-8.25l-.75.75h-1.5l-1.5 1.5-3 1.5-.75 1.5-1.5 1.5v.75l-.75.75z"/><path d="m91.5 149.5v-.75l-.75-.75v-.75l-.75-1.5v-.75l3.75-3.75h9l.75.75 3-5.25h-.75l-.75-.75h-.75l-.75-.75h-1.5-.75l-1.5-.75h-5.25l-.75.75h-.75l-1.5.75h-1.5l-1.5 1.5-1.5.75-1.5 1.5-1.5 3v6.75l.75 1.5v.75l2.25 2.25z"/><path d="m158.25 127.75-.75-.75h-3.75l-1.5-.75-.75.75h-1.5l-.75.75h-.75l-.75.75-.75 1.5-1.5 1.5v2.25l-.75.75v.75l.75.75v3l.75.75v.75.75h-6l-.75-1.5v-3.75l-.75-1.5v-2.25l.75-1.5v-1.5l.75-.75.75-1.5.75-.75.75-1.5 2.25-2.25 3-1.5h.75l1.5-.75h6l1.5.75h.75l3 1.5h1.5z"/><path d="m142.5 217.75.75-.75v-.75h.75l.75-.75h.75l.75-.75h1.5l.75-.75h1.5l.75-.75h6l1.5.75h1.5l1.5 1.5 1.5.75v1.5l1.5 1.5v.75h.75v1.5.75h.75l6.75-.75h-.75v-3l-.75-.75-.75-1.5v-.75l-2.25-2.25-.75-1.5-1.5-.75-2.25-2.25h-.75l-1.5-.75h-.75l-1.5-.75h-.75l-.75-.75h-8.25l-1.5.75h-1.5l-.75.75h-1.5l-.75.75h-.75l-1.5.75v.75h-.75l-1.5.75-.75.75-1.5.75-.75.75v.75l-.75.75z"/><path d="m12 190v.75l.75.75v1.5l.75 1.5.75.75v1.5l.75.75v.75l.75.75v.75l.75 1.5v.75l.75 1.5.75.75.75 1.5v.75l.75 1.5.75.75 1.5 3v1.5l.75 1.5.75.75 1.5 3 .75 1.5 1.5 3 1.5.75 3.75 7.5 1.5 1.5 1.5 3 1.5 1.5 1.5 3 2.25 2.25.75 1.5 3 3 .75 1.5 3.75 3.75.75 1.5 1.5.75 1.5 1.5.75 1.5 1.5.75 4.5 4.5h.75l.75 1.5h1.5l.75 1.5h.75v.75l1.5.75.75.75h.75v.75l1.5.75.75.75h.75l3.75 3.75h.75l1.5.75 2.25 2.25h1.5l1.5 1.5 3 1.5.75.75h.75l.75.75h.75l.75.75h.75l1.5 1.5h2.25l1.5 1.5h2.25l1.5 1.5h2.25l.75.75h.75l1.5.75h1.5l1.5.75h1.5l1.5.75h1.5l1.5.75h1.5l1.5.75h3l.75.75h5.25l1.5.75h3.75l1.5.75h29.25l1.5-.75h3l2.25-.75h4.5l1.5-.75h1.5l1.5-.75h3.75l3-1.5h3l4.5-2.25h2.25l3-1.5h1.5l3-1.5 2.25-.75.75-.75 2.25-.75.75-.75 2.25-.75.75-.75 2.25-.75 3-1.5 1.5-1.5 6-3 1.5-1.5 1.5-.75 3.75-3.75 1.5-.75 3-3 1.5-.75.75-1.5 4.5-4.5.75-1.5 3.75-3.75 1.5-2.25.75-1.5 1.5-1.5.75-1.5 1.5-1.5 1.5-3 1.5-1.5.75-1.5.75-.75 3-6 .75-.75 2.25-4.5.75-.75.75-1.5v-.75l.75-1.5 1.5-1.5v-1.5l.75-1.5 1.5-1.5v-.75l.75-1.5v-.75l.75-.75v-.75l.75-1.5v-1.5l.75-.75v-1.5l.75-.75v-1.5l.75-.75v-1.5l.75-.75v-2.25l.75-.75v-.75l11.25-9.75v.75l-.75.75v1.5l-.75.75v1.5l-.75 1.5v.75l-.75 1.5-.75.75v1.5l-.75 1.5v1.5l-2.25 4.5v1.5l-.75 2.25-1.5 3-.75 2.25-.75 1.5-1.5 4.5-1.5 1.5-1.5 4.5-.75 1.5-1.5 2.25-.75 2.25-1.5 2.25-1.5 1.5-.75 2.25-1.5 2.25-.75 2.25-1.5 2.25-1.5 1.5-4.5 6.75-3.75 3.75-3 4.5-2.25 1.5-1.5 2.25-3.75 3.75-2.25 1.5-1.5 2.25-2.25 2.25-6.75 4.5-2.25 2.25-2.25.75-2.25 1.5-3 1.5-2.25 1.5-1.5 1.5-6.75 2.25-1.5.75-4.5 1.5-2.25 1.5h-2.25l-2.25.75-1.5.75-4.5 1.5h-2.25l-2.25.75-1.5.75h-2.25l-2.25.75h-2.25l-2.25.75h-2.25l-2.25.75h-6l-2.25.75h-24.75l-2.25-.75h-6l-2.25-.75h-1.5l-2.25-.75h-3.75l-1.5-.75h-2.25l-1.5-.75h-1.5l-1.5-.75h-2.25l-1.5-.75h-1.5l-3-1.5h-1.5l-1.5-.75h-1.5l-3-1.5h-1.5l-1.5-.75-.75-.75-3-1.5h-1.5l-1.5-1.5-1.5-.75-.75-.75-7.5-3.75-3.75-3.75-3-1.5-1.5-1.5-3-1.5-.75-1.5-1.5-.75-1.5-1.5-1.5-.75-.75-1.5-1.5-.75-2.25-2.25-1.5-.75-.75-1.5-1.5-.75-.75-1.5-.75-.75-1.5-.75-.75-1.5-4.5-4.5-.75-1.5-.75-.75-.75-1.5-3.75-3.75-.75-1.5-.75-.75-.75-1.5-.75-.75-1.5-3-1.5-.75-.75-1.5-.75-.75-.75-1.5-.75-.75-1.5-3-.75-.75-2.25-4.5-.75-.75-2.25-4.5-.75-.75-.75-2.25-.75-.75v-1.5l-3.75-7.5-.75-.75-.75-1.5v-1.5l-1.5-3v-1.5l-2.25-4.5v-2.25l-.75-.75-.75-2.25v-1.5l-1.5-3v-1.5l-.75-1.5v-1.5l-.75-1.5z"/><path d="m96.75 291.25v7.5h.75l.75.75h.75l.75.75h.75l.75.75h.75l1.5.75h.75l1.5.75h1.5l.75.75h2.25l.75.75h2.25l.75.75h3l.75.75h1.5 1.5l.75.75h5.25l.75.75h5.25l1.5.75h23.25l.75-.75h5.25l.75-.75h5.25l.75-.75h3.75l.75-.75h2.25l1.5-.75h1.5l.75-.75h3l.75-.75 1.5-.75h.75l1.5-.75h.75l.75-.75h1.5l.75-.75h.75v-9.75l7.5-2.25v16.5h-.75l-.75.75h-.75l-.75.75h-.75l-.75.75h-.75l-3 1.5h-.75l-1.5.75h-.75l-.75.75h-1.5l-1.5.75h-.75l-1.5.75h-1.5l-.75.75h-3.75l-.75.75h-2.25l-1.5.75h-2.25l-1.5.75h-3.75l-1.5.75h-10.5l-1.5.75h-9l-1.5-.75h-11.25l-1.5-.75h-4.5l-1.5-.75h-3.75l-1.5-.75h-2.25l-1.5-.75h-3l-1.5-.75h-.75l-.75-.75h-1.5l-.75-.75h-3l-.75-.75h-.75l-.75-.75h-1.5l-.75-.75h-1.5l-1.5-.75h-.75l-.75-.75-1.5-.75h-.75l-.75-.75h-.75l-.75-.75v-16.5z"/><path d="m13.5 193v-.75l-.75-1.5v-3.75l.75-1.5v-1.5l.75-1.5v-.75l.75-1.5.75-.75 1.5-3 1.5-1.5.75-1.5 1.5-.75.75-.75 1.5-.75 1.5-1.5h1.5l.75-.75h1.5.75l3.75 5.25h-1.5l-1.5.75h-.75l-.75.75-1.5.75h-.75l-2.25 2.25-.75 1.5-1.5 1.5-.75 1.5v.75l-1.5 1.5v3.75l-.75 1.5.75 1.5v4.5l.75.75v.75z"/><path d="m120 100h-1.5l-.75-.75-1.5-.75h-.75l-2.25-.75-1.5-.75 4.5-6v.75h1.5l.75.75 1.5.75h.75l1.5.75z"/><path d="m120 111.25h-.75l-.75-.75h-2.25l-.75-.75h-1.5l-.75-.75h-.75l-1.5-.75-1.5-1.5h-.75l1.5-6h.75v.75h1.5v.75h.75l.75.75h2.25l.75.75 1.5.75h.75z"/><path d="m63.75 123.25h6.75l1.5.75-2.25 6h-1.5l-1.5-.75h-6z"/><path d="m69.75 140.5v-.75h-3.75l-.75-.75h-3l-.75-.75h-.75l-1.5-.75v-5.25h1.5l1.5.75h3.75l.75.75h2.25z"/><path d="m57 141.25h3.75l1.5.75.75.75h1.5l.75.75-6 3.75-.75-.75h-.75l-.75-.75h-1.5l-.75-.75h-.75l-1.5-.75h-3z"/><path d="m45 145.75h3.75l.75.75h1.5l1.5 1.5h.75l.75.75h1.5l-6.75 3.75h-.75l-.75-.75-1.5-.75h-1.5l-.75-.75h-.75l-1.5-.75h-3z"/><path d="m33.75 151.75h1.5l1.5.75h2.25l.75.75h1.5l.75.75 3 1.5-5.25 4.5h-.75v-.75h-.75l-1.5-.75h-.75l-.75-.75h-1.5l-1.5-.75h-.75l-1.5-.75h-1.5z"/><path d="m35.25 169.75h-.75l-1.5-.75h-.75l-1.5-.75h-.75l-1.5-1.5h-1.5l-.75-.75-1.5-.75h-.75l2.25-6h.75l1.5.75.75.75h1.5l.75.75 1.5.75h.75l.75.75h1.5l1.5.75z"/><path d="m72.75 120.25h-5.25l-.75-.75h-2.25v-6h1.5l.75.75h5.25z"/><path d="m29.25 202v-.75h-.75l-.75-.75-1.5-.75h-.75l-.75-.75v-.75l-1.5-1.5h-.75l-.75-1.5h-.75v-7.5l3 3 1.5.75.75.75h.75l1.5.75.75.75z"/><path d="m30 189.25-.75-.75h-.75l-1.5-1.5-1.5-.75-.75-.75h-.75l-1.5-1.5 4.5-5.25 1.5 1.5h.75l1.5.75 1.5 1.5h.75l.75.75z"/><path d="m52.5 234.25h-3.75l-1.5-.75h-.75l-1.5-.75h-1.5l-1.5-.75h-1.5l-6-3-6.75-12v.75l1.5.75h.75l1.5 1.5 4.5 2.25h.75l.75.75h.75l1.5.75.75.75h.75l.75.75h1.5l.75.75 1.5.75h1.5l.75.75z"/><path d="m80.25 275.5h9l.75-.75 15 10.5h-2.25l-.75-.75h-2.25l-1.5-.75h-2.25l-3-1.5h-1.5l-1.5-.75-.75-.75-3-1.5-.75-.75h-.75l-1.5-.75-.75-.75h-.75z"/><path d="m63 247.75h-6l-1.5-.75h-3l-1.5-.75h-1.5l-1.5-.75h-1.5l-.75-.75-6.75-9 .75.75h1.5l.75.75h.75l1.5.75h3 .75l.75.75h2.25l1.5.75h3l1.5.75z"/><path d="m75 260.5h-12.75l-1.5-.75h-.75l-9-9 .75.75h2.25l.75.75h4.5l.75.75h.75 6.75z"/><path d="m86.25 271h-2.25l-.75.75h-9l-8.25-6.75h9.75 1.5 1.5z"/><path d="m193.639 162.441v-.75h.75l2.25-2.25h.75l.75-.75h.75l.75-.75h2.25l.75.75h.75l1.5.75h.75l5.25 5.25v.75l.75.75v1.5l.75.75v.75l6-1.5v-1.5l-.75-.75v-1.5l-.75-1.5-.75-.75v-1.5l-3.75-3.75-.75-1.5-6-3h-8.25l-.75.75h-1.5l-1.5 1.5-3 1.5-.75 1.5-1.5 1.5v.75l-.75.75z"/></g></g></svg>